<svg width="287" height="60" viewBox="0 0 287 60" fill="none" xmlns="http://www.w3.org/2000/svg">
<rect width="287" height="60" fill="none"/>
<rect x="6" y="5" width="48" height="50" rx="10" fill="#24A47F"/>
<path d="M30.4609 18.4688L23.5859 43H18.625L27.6484 14.5625H30.7344L30.4609 18.4688ZM35.9492 43L29.0547 18.4688L28.7227 14.5625H31.8672L40.9297 43H35.9492ZM36.0664 32.4336V36.418H22.8242V32.4336H36.0664Z" fill="white"/>
<path d="M75.0352 20.0938H78.5488L82.6094 33.7109L86.6562 20.0938H89.7598L84.0996 40H81.1055L75.0352 20.0938ZM73.6133 20.0938H76.9629L77.4824 33.2188V40H73.6133V20.0938ZM88.2285 20.0938H91.5918V40H87.7363V33.2188L88.2285 20.0938ZM99.5067 38.3047L102.597 25.207H106.589L101.722 42.2148C101.612 42.5885 101.462 42.9896 101.27 43.418C101.079 43.8555 100.824 44.2656 100.505 44.6484C100.195 45.0404 99.8029 45.3594 99.329 45.6055C98.855 45.8516 98.2854 45.9746 97.62 45.9746C97.2828 45.9746 97.0093 45.9518 96.7997 45.9062C96.5992 45.8698 96.344 45.806 96.0341 45.7148V42.7344C96.1161 42.7344 96.1936 42.7344 96.2665 42.7344C96.3485 42.7435 96.426 42.748 96.4989 42.748C96.9273 42.748 97.2691 42.6888 97.5243 42.5703C97.7795 42.4609 97.9846 42.2878 98.1395 42.0508C98.3036 41.8138 98.4403 41.5176 98.5497 41.1621L99.5067 38.3047ZM98.7138 25.207L101.011 35.8164L101.53 40.1367L98.9462 40.3828L94.6122 25.207H98.7138ZM124.346 23.6484L120.067 40H115.842L122.063 20.0938H124.702L124.346 23.6484ZM127.723 40L123.417 23.6484L123.02 20.0938H125.7L131.975 40H127.723ZM127.874 32.5762V35.8984H118.891V32.5762H127.874ZM138.824 19V40H134.982V19H138.824ZM148.325 37.0879C148.68 37.0879 148.985 37.015 149.241 36.8691C149.505 36.7233 149.705 36.4863 149.842 36.1582C149.979 35.8301 150.052 35.4062 150.061 34.8867H153.657C153.657 35.9987 153.42 36.9603 152.946 37.7715C152.481 38.5736 151.852 39.1934 151.059 39.6309C150.275 40.0592 149.386 40.2734 148.393 40.2734C147.399 40.2734 146.534 40.1139 145.795 39.7949C145.057 39.4759 144.446 39.0111 143.963 38.4004C143.489 37.7897 143.129 37.0469 142.883 36.1719C142.646 35.2878 142.528 34.276 142.528 33.1367V32.0566C142.528 30.9355 142.646 29.9329 142.883 29.0488C143.129 28.1647 143.489 27.4173 143.963 26.8066C144.446 26.196 145.052 25.7311 145.782 25.4121C146.52 25.0931 147.386 24.9336 148.379 24.9336C149.446 24.9336 150.371 25.1569 151.155 25.6035C151.939 26.041 152.549 26.6882 152.987 27.5449C153.433 28.4017 153.657 29.459 153.657 30.7168H150.061C150.052 30.1517 149.983 29.6823 149.856 29.3086C149.737 28.9258 149.551 28.6341 149.295 28.4336C149.049 28.224 148.721 28.1191 148.311 28.1191C147.883 28.1191 147.536 28.2103 147.272 28.3926C147.017 28.5658 146.821 28.821 146.684 29.1582C146.556 29.4863 146.47 29.8965 146.424 30.3887C146.379 30.8809 146.356 31.4368 146.356 32.0566V33.1367C146.356 33.8021 146.374 34.3809 146.411 34.873C146.456 35.3561 146.543 35.7663 146.67 36.1035C146.807 36.4316 147.003 36.6777 147.258 36.8418C147.523 37.0059 147.878 37.0879 148.325 37.0879ZM156.54 33.1094V32.1113C156.54 30.9538 156.677 29.9284 156.95 29.0352C157.233 28.1419 157.634 27.3945 158.154 26.793C158.673 26.1823 159.297 25.722 160.027 25.4121C160.765 25.0931 161.59 24.9336 162.501 24.9336C163.422 24.9336 164.247 25.0931 164.976 25.4121C165.714 25.722 166.343 26.1823 166.863 26.793C167.391 27.3945 167.797 28.1419 168.079 29.0352C168.362 29.9284 168.503 30.9538 168.503 32.1113V33.1094C168.503 34.2578 168.362 35.2786 168.079 36.1719C167.797 37.0651 167.391 37.8171 166.863 38.4277C166.343 39.0384 165.719 39.4987 164.99 39.8086C164.26 40.1185 163.44 40.2734 162.529 40.2734C161.617 40.2734 160.792 40.1185 160.054 39.8086C159.325 39.4987 158.696 39.0384 158.167 38.4277C157.639 37.8171 157.233 37.0651 156.95 36.1719C156.677 35.2786 156.54 34.2578 156.54 33.1094ZM160.368 32.1113V33.1094C160.368 33.793 160.414 34.3854 160.505 34.8867C160.605 35.388 160.747 35.8027 160.929 36.1309C161.12 36.459 161.348 36.7005 161.613 36.8555C161.877 37.0104 162.182 37.0879 162.529 37.0879C162.875 37.0879 163.185 37.0104 163.458 36.8555C163.732 36.7005 163.955 36.459 164.128 36.1309C164.31 35.8027 164.443 35.388 164.525 34.8867C164.616 34.3854 164.661 33.793 164.661 33.1094V32.1113C164.661 31.446 164.611 30.8626 164.511 30.3613C164.411 29.8509 164.269 29.4362 164.087 29.1172C163.905 28.7891 163.677 28.543 163.404 28.3789C163.139 28.2057 162.838 28.1191 162.501 28.1191C162.164 28.1191 161.863 28.2057 161.599 28.3789C161.344 28.543 161.12 28.7891 160.929 29.1172C160.747 29.4362 160.605 29.8509 160.505 30.3613C160.414 30.8626 160.368 31.446 160.368 32.1113ZM175.776 19V40H171.947V19H175.776ZM175.229 32.0977L174.19 32.125C174.19 31.0859 174.294 30.1289 174.504 29.2539C174.723 28.3789 175.037 27.6178 175.447 26.9707C175.858 26.3236 176.354 25.8223 176.938 25.4668C177.53 25.1113 178.182 24.9336 178.893 24.9336C179.503 24.9336 180.059 25.0384 180.561 25.248C181.062 25.4577 181.495 25.7858 181.86 26.2324C182.233 26.679 182.52 27.2669 182.721 27.9961C182.921 28.7253 183.022 29.6139 183.022 30.6621V40H179.18V30.6348C179.18 29.9967 179.116 29.4954 178.988 29.1309C178.861 28.7663 178.669 28.5111 178.414 28.3652C178.159 28.2103 177.84 28.1328 177.457 28.1328C177.047 28.1328 176.696 28.2376 176.404 28.4473C176.122 28.6478 175.894 28.9258 175.721 29.2812C175.548 29.6367 175.42 30.056 175.338 30.5391C175.265 31.0221 175.229 31.5417 175.229 32.0977ZM186.507 33.1094V32.1113C186.507 30.9538 186.644 29.9284 186.917 29.0352C187.2 28.1419 187.601 27.3945 188.12 26.793C188.64 26.1823 189.264 25.722 189.993 25.4121C190.731 25.0931 191.556 24.9336 192.468 24.9336C193.388 24.9336 194.213 25.0931 194.942 25.4121C195.681 25.722 196.31 26.1823 196.829 26.793C197.358 27.3945 197.763 28.1419 198.046 29.0352C198.328 29.9284 198.47 30.9538 198.47 32.1113V33.1094C198.47 34.2578 198.328 35.2786 198.046 36.1719C197.763 37.0651 197.358 37.8171 196.829 38.4277C196.31 39.0384 195.685 39.4987 194.956 39.8086C194.227 40.1185 193.407 40.2734 192.495 40.2734C191.584 40.2734 190.759 40.1185 190.021 39.8086C189.291 39.4987 188.662 39.0384 188.134 38.4277C187.605 37.8171 187.2 37.0651 186.917 36.1719C186.644 35.2786 186.507 34.2578 186.507 33.1094ZM190.335 32.1113V33.1094C190.335 33.793 190.381 34.3854 190.472 34.8867C190.572 35.388 190.713 35.8027 190.896 36.1309C191.087 36.459 191.315 36.7005 191.579 36.8555C191.843 37.0104 192.149 37.0879 192.495 37.0879C192.842 37.0879 193.151 37.0104 193.425 36.8555C193.698 36.7005 193.922 36.459 194.095 36.1309C194.277 35.8027 194.409 35.388 194.491 34.8867C194.582 34.3854 194.628 33.793 194.628 33.1094V32.1113C194.628 31.446 194.578 30.8626 194.478 30.3613C194.377 29.8509 194.236 29.4362 194.054 29.1172C193.871 28.7891 193.644 28.543 193.37 28.3789C193.106 28.2057 192.805 28.1191 192.468 28.1191C192.131 28.1191 191.83 28.2057 191.565 28.3789C191.31 28.543 191.087 28.7891 190.896 29.1172C190.713 29.4362 190.572 29.8509 190.472 30.3613C190.381 30.8626 190.335 31.446 190.335 32.1113ZM206.029 19V40H202.187V19H206.029ZM226.371 34.7637C226.371 34.4082 226.339 34.0846 226.275 33.793C226.211 33.5013 226.075 33.2324 225.865 32.9863C225.664 32.7402 225.368 32.4941 224.976 32.248C224.593 32.002 224.092 31.7467 223.472 31.4824C222.734 31.1725 222.019 30.8444 221.326 30.498C220.633 30.1426 220.009 29.7324 219.453 29.2676C218.897 28.8027 218.455 28.2559 218.127 27.627C217.808 26.9889 217.648 26.2415 217.648 25.3848C217.648 24.5462 217.799 23.7852 218.099 23.1016C218.409 22.418 218.847 21.8346 219.412 21.3516C219.977 20.8594 220.638 20.4811 221.394 20.2168C222.16 19.9525 223.012 19.8203 223.951 19.8203C225.227 19.8203 226.33 20.0846 227.259 20.6133C228.198 21.1419 228.923 21.8665 229.433 22.7871C229.953 23.7077 230.213 24.765 230.213 25.959H226.22C226.22 25.3939 226.138 24.8971 225.974 24.4688C225.819 24.0312 225.569 23.6895 225.222 23.4434C224.876 23.1973 224.429 23.0742 223.883 23.0742C223.372 23.0742 222.948 23.179 222.611 23.3887C222.283 23.5892 222.037 23.8672 221.873 24.2227C221.718 24.569 221.64 24.9609 221.64 25.3984C221.64 25.7266 221.718 26.0228 221.873 26.2871C222.037 26.5423 222.26 26.7747 222.543 26.9844C222.825 27.1849 223.158 27.3809 223.541 27.5723C223.933 27.7637 224.361 27.9505 224.826 28.1328C225.728 28.4883 226.526 28.8802 227.218 29.3086C227.911 29.7279 228.49 30.2018 228.955 30.7305C229.42 31.25 229.771 31.8379 230.008 32.4941C230.244 33.1504 230.363 33.8978 230.363 34.7363C230.363 35.5658 230.217 36.3223 229.925 37.0059C229.643 37.6803 229.228 38.2637 228.681 38.7559C228.134 39.2389 227.474 39.6126 226.699 39.877C225.933 40.1413 225.077 40.2734 224.129 40.2734C223.208 40.2734 222.338 40.1458 221.517 39.8906C220.697 39.6263 219.972 39.2298 219.343 38.7012C218.724 38.1634 218.236 37.4844 217.881 36.6641C217.525 35.8346 217.347 34.8548 217.347 33.7246H221.353C221.353 34.3262 221.412 34.8411 221.531 35.2695C221.649 35.6888 221.832 36.026 222.078 36.2812C222.324 36.5273 222.625 36.7142 222.98 36.8418C223.345 36.9603 223.759 37.0195 224.224 37.0195C224.753 37.0195 225.172 36.9193 225.482 36.7188C225.801 36.5182 226.029 36.2493 226.166 35.9121C226.302 35.5749 226.371 35.1921 226.371 34.7637ZM240.452 25.207V28.0918H232.905V25.207H240.452ZM234.641 21.5566H238.456V35.4883C238.456 35.8984 238.497 36.2129 238.579 36.4316C238.661 36.6504 238.784 36.8053 238.948 36.8965C239.121 36.9785 239.349 37.0195 239.631 37.0195C239.823 37.0195 240.001 37.0104 240.165 36.9922C240.329 36.9648 240.452 36.9375 240.534 36.9102V39.9043C240.233 40.0228 239.914 40.1139 239.577 40.1777C239.249 40.2415 238.857 40.2734 238.401 40.2734C237.635 40.2734 236.97 40.1276 236.405 39.8359C235.849 39.5443 235.416 39.0794 235.106 38.4414C234.796 37.7943 234.641 36.9466 234.641 35.8984V21.5566ZM242.857 33.1094V32.1113C242.857 30.9538 242.994 29.9284 243.267 29.0352C243.55 28.1419 243.951 27.3945 244.47 26.793C244.99 26.1823 245.614 25.722 246.343 25.4121C247.081 25.0931 247.906 24.9336 248.818 24.9336C249.738 24.9336 250.563 25.0931 251.292 25.4121C252.031 25.722 252.66 26.1823 253.179 26.793C253.708 27.3945 254.113 28.1419 254.396 29.0352C254.678 29.9284 254.82 30.9538 254.82 32.1113V33.1094C254.82 34.2578 254.678 35.2786 254.396 36.1719C254.113 37.0651 253.708 37.8171 253.179 38.4277C252.66 39.0384 252.035 39.4987 251.306 39.8086C250.577 40.1185 249.757 40.2734 248.845 40.2734C247.934 40.2734 247.109 40.1185 246.371 39.8086C245.641 39.4987 245.012 39.0384 244.484 38.4277C243.955 37.8171 243.55 37.0651 243.267 36.1719C242.994 35.2786 242.857 34.2578 242.857 33.1094ZM246.685 32.1113V33.1094C246.685 33.793 246.731 34.3854 246.822 34.8867C246.922 35.388 247.063 35.8027 247.246 36.1309C247.437 36.459 247.665 36.7005 247.929 36.8555C248.193 37.0104 248.499 37.0879 248.845 37.0879C249.192 37.0879 249.501 37.0104 249.775 36.8555C250.048 36.7005 250.272 36.459 250.445 36.1309C250.627 35.8027 250.759 35.388 250.841 34.8867C250.932 34.3854 250.978 33.793 250.978 33.1094V32.1113C250.978 31.446 250.928 30.8626 250.828 30.3613C250.727 29.8509 250.586 29.4362 250.404 29.1172C250.221 28.7891 249.994 28.543 249.72 28.3789C249.456 28.2057 249.155 28.1191 248.818 28.1191C248.481 28.1191 248.18 28.2057 247.915 28.3789C247.66 28.543 247.437 28.7891 247.246 29.1172C247.063 29.4362 246.922 29.8509 246.822 30.3613C246.731 30.8626 246.685 31.446 246.685 32.1113ZM262.188 28.502V40H258.36V25.207H261.969L262.188 28.502ZM265.674 25.0977L265.619 28.9121C265.446 28.8757 265.237 28.8483 264.991 28.8301C264.754 28.8118 264.544 28.8027 264.362 28.8027C263.933 28.8027 263.569 28.8711 263.268 29.0078C262.967 29.1354 262.716 29.3314 262.516 29.5957C262.325 29.8509 262.179 30.1699 262.078 30.5527C261.978 30.9355 261.919 31.3685 261.901 31.8516L261.176 31.5781C261.176 30.612 261.249 29.7279 261.395 28.9258C261.55 28.1146 261.778 27.4128 262.078 26.8203C262.379 26.2188 262.739 25.7539 263.159 25.4258C263.587 25.0977 264.07 24.9336 264.608 24.9336C264.79 24.9336 264.981 24.9518 265.182 24.9883C265.392 25.0156 265.556 25.0521 265.674 25.0977ZM272.714 38.3047L275.804 25.207H279.796L274.929 42.2148C274.82 42.5885 274.669 42.9896 274.478 43.418C274.286 43.8555 274.031 44.2656 273.712 44.6484C273.402 45.0404 273.01 45.3594 272.536 45.6055C272.062 45.8516 271.493 45.9746 270.827 45.9746C270.49 45.9746 270.217 45.9518 270.007 45.9062C269.807 45.8698 269.551 45.806 269.241 45.7148V42.7344C269.323 42.7344 269.401 42.7344 269.474 42.7344C269.556 42.7435 269.633 42.748 269.706 42.748C270.135 42.748 270.476 42.6888 270.732 42.5703C270.987 42.4609 271.192 42.2878 271.347 42.0508C271.511 41.8138 271.648 41.5176 271.757 41.1621L272.714 38.3047ZM271.921 25.207L274.218 35.8164L274.738 40.1367L272.154 40.3828L267.82 25.207H271.921Z" fill="#24A47F"/>
</svg>
